<?xml version="1.0" encoding="UTF-8" standalone="no"?>
<!-- Created with Inkscape (http://www.inkscape.org/) -->

<svg
   width="998.28369"
   height="372.29691"
   viewBox="0 0 264.12922 98.503554"
   version="1.1"
   id="svg1"
   inkscape:version="1.3.2 (091e20e, 2023-11-25, custom)"
   sodipodi:docname="logo.svg"
   xmlns:inkscape="http://www.inkscape.org/namespaces/inkscape"
   xmlns:sodipodi="http://sodipodi.sourceforge.net/DTD/sodipodi-0.dtd"
   xmlns:xlink="http://www.w3.org/1999/xlink"
   xmlns="http://www.w3.org/2000/svg"
   xmlns:svg="http://www.w3.org/2000/svg">
  <sodipodi:namedview
     id="namedview1"
     pagecolor="#ffffff"
     bordercolor="#000000"
     borderopacity="0.25"
     inkscape:showpageshadow="2"
     inkscape:pageopacity="0.0"
     inkscape:pagecheckerboard="0"
     inkscape:deskcolor="#d1d1d1"
     inkscape:document-units="mm"
     inkscape:zoom="0.52649411"
     inkscape:cx="400.76422"
     inkscape:cy="240.2686"
     inkscape:window-width="1440"
     inkscape:window-height="829"
     inkscape:window-x="-8"
     inkscape:window-y="-8"
     inkscape:window-maximized="1"
     inkscape:current-layer="layer1" />
  <defs
     id="defs1">
    <linearGradient
       id="linearGradient12"
       inkscape:collect="always">
      <stop
         style="stop-color:#ff7373;stop-opacity:0;"
         offset="0"
         id="stop14" />
      <stop
         style="stop-color:#a773ff;stop-opacity:1;"
         offset="0.48882681"
         id="stop12" />
      <stop
         style="stop-color:#73aaff;stop-opacity:0;"
         offset="1"
         id="stop13" />
    </linearGradient>
    <rect
       x="322.89059"
       y="174.7408"
       width="560.31018"
       height="155.74722"
       id="rect11" />
    <rect
       x="370.37451"
       y="172.84145"
       width="434.95264"
       height="178.53951"
       id="rect10" />
    <rect
       x="322.89059"
       y="174.7408"
       width="560.31018"
       height="155.74722"
       id="rect11-5" />
    <rect
       x="322.89059"
       y="174.7408"
       width="560.31018"
       height="155.74722"
       id="rect11-5-8" />
    <linearGradient
       inkscape:collect="always"
       xlink:href="#linearGradient12"
       id="linearGradient13"
       x1="29.639584"
       y1="110.33557"
       x2="287.68625"
       y2="110.33557"
       gradientUnits="userSpaceOnUse" />
  </defs>
  <g
     inkscape:label="图层 1"
     inkscape:groupmode="layer"
     id="layer1"
     transform="translate(-29.639584,-36.528696)">
    <rect
       style="fill:url(#linearGradient13);stroke-width:0.218356"
       id="rect12"
       width="258.04666"
       height="49.393375"
       x="29.639584"
       y="85.638878" />
    <g
       fill="#8da5f3"
       stroke-linecap="round"
       stroke-linejoin="round"
       transform="matrix(5.9380773,0,0,5.9380773,207.42299,39.599463)"
       id="g10">
      <path
         d="M 9.3668041,0.99371101 A 2.9583841,2.9583841 0 0 0 6.4084741,3.952041 2.9583841,2.9583841 0 0 0 9.3668041,6.910371 2.9583841,2.9583841 0 0 0 12.325134,3.952041 2.9583841,2.9583841 0 0 0 9.3668041,0.99371101 Z M 10.792293,2.7447748 c 0.220501,-8.155e-4 0.442424,0.1198489 0.447006,0.360772 l 0.02288,1.2143056 0.0035,0.167187 c 0.0091,0.4818462 -0.874289,0.4906457 -0.883452,0.0088 l -0.0035,-0.1654271 c 0,0 -0.01621,-0.7220177 -0.02288,-1.2160655 -0.0033,-0.247024 0.215945,-0.3687558 0.436446,-0.369572 z"
         stroke-width="0.469898"
         id="path1" />
      <g
         stroke-width="0.5"
         id="g9">
        <path
           d="M 7.7698816,6.6598985 5.1167513,14.375635 Z"
           id="path2" />
        <rect
           height="7.356935"
           rx="0.903256"
           ry="1.0521049"
           transform="rotate(23.507597)"
           width="1.938211"
           x="9.5359259"
           y="1.332356"
           id="rect2" />
        <rect
           height="5.0090752"
           rx="0.91555601"
           ry="1.0521049"
           transform="rotate(-56.01251,-0.91493517,-2.8971544)"
           width="1.867841"
           x="-5.1228342"
           y="9.8813114"
           id="rect3" />
        <rect
           height="4.3917751"
           rx="0.875862"
           ry="1.0521049"
           transform="rotate(-127.11622,0.49303721,-1.5151186)"
           width="1.859666"
           x="-15.540003"
           y="-0.28769401"
           id="rect4" />
        <rect
           height="5.0090752"
           rx="0.91555601"
           ry="1.0521049"
           transform="rotate(99.613825,3.2967386,14.618687)"
           width="1.867841"
           x="-5.4746828"
           y="10.085874"
           id="rect5" />
        <rect
           height="4.176425"
           rx="0.85669303"
           ry="1.0521049"
           transform="rotate(39.01388,-10.360797,32.678218)"
           width="1.8204139"
           x="-15.520487"
           y="2.083077"
           id="rect6" />
        <rect
           height="7.5096812"
           rx="0.91555601"
           ry="1.0521049"
           transform="rotate(121.03516,-5.1584311,14.590431)"
           width="1.899158"
           x="-15.551805"
           y="-0.41752899"
           id="rect7" />
        <rect
           height="5.0090752"
           rx="0.91555601"
           ry="1.0521049"
           transform="rotate(-60.847165,2.9206677,11.823294)"
           width="1.867841"
           x="1.893664"
           y="10.518713"
           id="rect8" />
        <rect
           height="5.0090752"
           rx="0.91555601"
           ry="1.0521049"
           transform="rotate(-150.91999,-3.296711,5.4519691)"
           width="1.867841"
           x="-15.520487"
           y="2.083077"
           id="rect9" />
      </g>
    </g>
    <g
       fill="#fc7f7f"
       stroke-linecap="round"
       stroke-linejoin="round"
       transform="matrix(5.8432796,0,0,5.8432796,19.589246,40.133098)"
       id="g8">
      <g
         stroke-width="0.56953"
         id="g7">
        <rect
           height="8.883009"
           rx="1.0924979"
           ry="1.5389169"
           transform="rotate(-7.7311133)"
           width="2.221415"
           x="5.2036829"
           y="6.0558052"
           id="rect1" />
        <rect
           height="5.4670882"
           rx="0.80201697"
           ry="1.1984119"
           transform="rotate(56.995972)"
           width="1.930588"
           x="8.7950935"
           y="-3.0661149"
           id="rect2-3" />
        <rect
           height="7.1645908"
           rx="1.070686"
           ry="1.022638"
           transform="rotate(52.692993)"
           width="2.141372"
           x="11.904073"
           y="-0.85996199"
           id="rect3-4" />
        <rect
           height="5.0267978"
           rx="0.87923002"
           ry="0.92770201"
           transform="rotate(98.78922)"
           width="1.8501281"
           x="5.0205832"
           y="-12.504268"
           id="rect4-5" />
        <rect
           height="4.711493"
           rx="0.88568598"
           ry="1.107282"
           transform="rotate(158.93831)"
           width="1.771372"
           x="-1.284467"
           y="-10.730576"
           id="rect5-3" />
        <rect
           height="3.885432"
           rx="0.82721603"
           ry="0.92577302"
           transform="rotate(170.20873)"
           width="1.6544321"
           x="-10.021316"
           y="-12.312589"
           id="rect6-8" />
        <rect
           height="4.6524391"
           rx="0.87624002"
           ry="1.130695"
           transform="rotate(-114.98174)"
           width="1.893028"
           x="-16.340654"
           y="1.082588"
           id="rect7-5" />
      </g>
      <path
         d="M 6.9834368,0.703125 C 5.2488769,0.70302282 3.8427096,2.1091901 3.8428118,3.84375 3.8427096,5.5783099 5.2488769,6.9844772 6.9834368,6.984375 8.7179967,6.9844772 10.124164,5.5783099 10.124062,3.84375 10.124164,2.1091901 8.7179967,0.70302282 6.9834368,0.703125 Z m 0.3769531,1.9199219 c 0.00969,-5.737e-4 0.019477,0 0.029297,0 0.3141222,0 0.5683594,0.2967242 0.5683594,0.6660156 v 1.1308594 c 0,0.3692914 -0.2542372,0.6660156 -0.5683594,0.6660156 -0.3141222,0 -0.5664063,-0.2967242 -0.5664063,-0.6660156 V 3.2890625 c 0,-0.3577511 0.2366925,-0.6482281 0.5371093,-0.6660156 z M 5.2783587,2.625 c 0.3141222,0 0.5664062,0.2986773 0.5664062,0.6679688 v 1.1308593 c 0,0.3692915 -0.252284,0.6640625 -0.5664062,0.6640625 -0.3141222,0 -0.5683594,-0.294771 -0.5683594,-0.6640625 V 3.2929688 C 4.7099993,2.9236773 4.9642365,2.625 5.2783587,2.625 Z"
         stroke-width="0.522523"
         id="path7" />
    </g>
    <text
       xml:space="preserve"
       transform="matrix(0.33907834,0,0,0.34633182,-7.4249991,-27.595834)"
       id="text11"
       style="font-style:normal;font-variant:normal;font-weight:normal;font-stretch:normal;font-size:80px;font-family:'Cyberion Demo';-inkscape-font-specification:'Cyberion Demo';white-space:pre;shape-inside:url(#rect11);display:inline;fill:#6d6d6d;fill-opacity:1"><tspan
         x="322.89062"
         y="246.9372"
         id="tspan2">Godot</tspan></text>
    <text
       xml:space="preserve"
       transform="matrix(0.48072194,0,0,0.4998208,-52.636997,-24.74201)"
       id="text11-9"
       style="font-style:normal;font-variant:normal;font-weight:normal;font-stretch:normal;font-size:80px;font-family:'Cyberion Demo';-inkscape-font-specification:'Cyberion Demo';white-space:pre;shape-inside:url(#rect11-5);display:inline;fill:#da2121;fill-opacity:1"><tspan
         x="322.89062"
         y="246.9372"
         id="tspan5"><tspan
           style="font-family:'Dunkin Sans';-inkscape-font-specification:'Dunkin Sans'"
           id="tspan4">Rigid</tspan></tspan></text>
    <text
       xml:space="preserve"
       transform="matrix(0.21445919,0,0,0.21692906,28.540281,72.736026)"
       id="text11-9-2"
       style="font-style:normal;font-variant:normal;font-weight:normal;font-stretch:normal;font-size:80px;font-family:'Cyberion Demo';-inkscape-font-specification:'Cyberion Demo';white-space:pre;shape-inside:url(#rect11-5-8);display:inline;fill:#4405de;fill-opacity:1"><tspan
         x="322.89062"
         y="246.9372"
         id="tspan7"><tspan
           style="font-family:'Dunkin Sans';-inkscape-font-specification:'Dunkin Sans'"
           id="tspan6">Character</tspan></tspan></text>
  </g>
</svg>
