<svg height="16" width="16" xmlns="http://www.w3.org/2000/svg"><g fill="#8da5f3" stroke-linecap="round" stroke-linejoin="round" transform="matrix(1.0672679 0 0 1.0672679 -.483385 -.362644)"><path d="m9.3668041.99371101a2.9583841 2.9583841 0 0 0 -2.95833 2.95832999 2.9583841 2.9583841 0 0 0 2.95833 2.95833 2.9583841 2.9583841 0 0 0 2.9583299-2.95833 2.9583841 2.9583841 0 0 0 -2.9583299-2.95832999zm1.4254889 1.75106379c.220501-.0008155.442424.1198489.447006.360772l.02288 1.2143056.0035.167187c.0091.4818462-.874289.4906457-.883452.0088l-.0035-.1654271s-.01621-.7220177-.02288-1.2160655c-.0033-.247024.215945-.3687558.436446-.369572z" stroke-width=".469898"/><g stroke-width=".5"><path d="m7.7698816 6.6598985-2.6531303 7.7157365z"/><rect height="7.356935" rx=".903256" ry="1.052105" transform="matrix(.9170072 .39887066 -.39887066 .9170072 0 0)" width="1.938211" x="9.535926" y="1.332356"/><rect height="5.009075" rx=".915556" ry="1.052105" transform="matrix(.55901188 -.82915965 .82915965 .55901188 1.998728 -2.036238)" width="1.867841" x="-5.122834" y="9.881311"/><rect height="4.391775" rx=".875862" ry="1.052105" transform="matrix(-.60343375 -.79741313 .79741313 -.60343375 1.998728 -2.036238)" width="1.859666" x="-15.540003" y="-.287694"/><rect height="5.009075" rx=".915556" ry="1.052105" transform="matrix(-.16700665 .98595577 -.98595577 -.16700665 18.260695 13.809667)" width="1.867841" x="-5.474683" y="10.085874"/><rect height="4.176425" rx=".856693" ry="1.052105" transform="matrix(.77699348 .62950864 -.62950864 .77699348 18.260695 13.809667)" width="1.820414" x="-15.520487" y="2.083077"/><rect height="7.509681" rx=".915556" ry="1.052105" transform="matrix(-.51556399 .85685108 -.85685108 -.51556399 4.683894 26.532739)" width="1.899158" x="-15.551805" y="-.417529"/><rect height="5.009075" rx=".915556" ry="1.052105" transform="matrix(.48714092 -.87332338 .87332338 .48714092 -8.827668 8.614371)" width="1.867841" x="1.893664" y="10.518713"/><rect height="5.009075" rx=".915556" ry="1.052105" transform="matrix(-.87394185 -.4860305 .4860305 -.87394185 -8.827668 8.614371)" width="1.867841" x="-15.520487" y="2.083077"/></g></g></svg>